<svg width="44" height="44" viewBox="0 0 44 44" fill="none" xmlns="http://www.w3.org/2000/svg">
<path d="M22 7.33341L18.3522 13.4131C17.4498 14.9171 16.9986 15.6691 16.9986 16.5001C16.9986 17.331 17.4498 18.083 18.3522 19.5871L21.5713 24.9522C21.7627 25.2713 21.8585 25.4308 22 25.4308C22.1415 25.4308 22.2373 25.2713 22.4287 24.9522L25.6478 19.5871C26.5502 18.083 27.0014 17.331 27.0014 16.5001C27.0014 15.6691 26.5502 14.9171 25.6478 13.4131L22 7.33341ZM22 7.33341V3.66675" stroke="#97EFE9" stroke-width="2"/>
<path d="M36.9606 23.0965L29.8715 22.9772C28.1178 22.9477 27.2409 22.933 26.5213 23.3484C25.8017 23.7639 25.376 24.5307 24.5247 26.0642L21.4879 31.5345C21.3073 31.8599 21.217 32.0226 21.2877 32.1452C21.3585 32.2678 21.5446 32.2709 21.9166 32.2772L28.1725 32.3824C29.9262 32.4119 30.8031 32.4266 31.5227 32.0112C32.2423 31.5957 32.668 30.8289 33.5193 29.2954L36.9606 23.0965ZM36.9606 23.0965L40.136 21.2631" stroke="#97EFE9" stroke-width="2"/>
<path d="M7.03944 23.0965L14.1285 22.9772C15.8822 22.9477 16.7591 22.933 17.4787 23.3484C18.1983 23.7639 18.624 24.5307 19.4753 26.0642L22.5121 31.5345C22.6927 31.8599 22.783 32.0226 22.7123 32.1452C22.6415 32.2678 22.4554 32.2709 22.0834 32.2772L15.8275 32.3824C14.0738 32.4119 13.1969 32.4266 12.4773 32.0112C11.7577 31.5957 11.332 30.8289 10.4807 29.2954L7.03944 23.0965ZM7.03944 23.0965L3.86401 21.2631" stroke="#97EFE9" stroke-width="2"/>
<path d="M22 27.5V41.25" stroke="#97EFE9" stroke-width="2"/>
</svg>
